<svg xmlns="http://www.w3.org/2000/svg" width="20" height="22" viewBox="0 0 20 22" fill="none">
  <path d="M9.50885 0.368518C9.79774 0.143827 10.2023 0.143827 10.4912 0.368518L19.4912 7.36852C19.686 7.52008 19.8 7.75313 19.8 8V19C19.8 19.7426 19.505 20.4548 18.9799 20.9799C18.4548 21.505 17.7426 21.8 17 21.8H3C2.25741 21.8 1.5452 21.505 1.02009 20.9799C0.495003 20.4548 0.2 19.7426 0.2 19V8C0.2 7.75313 0.313978 7.52008 0.508847 7.36852L9.50885 0.368518ZM7.8 20.2H12.2V11.8H7.8V20.2ZM13.8 20.2H17C17.3182 20.2 17.6234 20.0736 17.8485 19.8485C18.0736 19.6234 18.2 19.3182 18.2 19V8.39127L10 2.01349L1.8 8.39127V19C1.8 19.3182 1.92642 19.6235 2.1515 19.8485C2.37652 20.0736 2.68173 20.2 3 20.2H6.2V11C6.2 10.5582 6.55817 10.2 7 10.2H13C13.4418 10.2 13.8 10.5582 13.8 11V20.2Z" fill="#ABABAB"/>
</svg>