<svg xmlns="http://www.w3.org/2000/svg" width="24" height="24" viewBox="0 0 24 24" fill="none">
  <path d="M9.2 9.93137V16C9.2 16.4418 9.55817 16.8 10 16.8C10.4418 16.8 10.8 16.4418 10.8 16V8.24142C10.8 7.43961 9.83057 7.03805 9.2636 7.60503L7.43431 9.43431C7.1219 9.74673 7.1219 10.2533 7.43431 10.5657C7.74673 10.8781 8.25327 10.8781 8.56569 10.5657L9.2 9.93137Z" fill="#ABABAB"/>
  <path d="M14.8 8V14.0686L15.4343 13.4343C15.7467 13.1219 16.2533 13.1219 16.5657 13.4343C16.8781 13.7467 16.8781 14.2533 16.5657 14.5657L14.7364 16.395C14.1694 16.9619 13.2 16.5604 13.2 15.7586V8C13.2 7.55817 13.5582 7.2 14 7.2C14.4418 7.2 14.8 7.55817 14.8 8Z" fill="#ABABAB"/>
  <path d="M12 23C18.0751 23 23 18.0751 23 12C23 5.92487 18.0751 1 12 1C5.92487 1 1 5.92487 1 12C1 18.0751 5.92487 23 12 23ZM12 21.4C6.80852 21.4 2.6 17.1915 2.6 12C2.6 6.80852 6.80852 2.6 12 2.6C17.1915 2.6 21.4 6.80852 21.4 12C21.4 17.1915 17.1915 21.4 12 21.4Z" fill="#ABABAB"/>
</svg>